<svg id="Layer_1" data-name="Layer 1" xmlns="http://www.w3.org/2000/svg" xmlns:xlink="http://www.w3.org/1999/xlink" viewBox="0 0 1000 1000"><defs><style>.cls-1{fill:url(#linear-gradient);}.cls-2,.cls-9{fill:#fff;}.cls-3{fill:url(#Bronze);}.cls-4{fill:url(#Bronze-2);}.cls-5{fill:url(#Bronze-3);}.cls-6{fill:url(#Bronze-4);}.cls-7{fill:url(#Bronze-5);}.cls-8{fill:url(#Bronze-6);}.cls-9{font-size:74.9px;font-family:Cinzel-Regular, "Cinzel(RUS BY LYAJKA)";}</style><linearGradient id="linear-gradient" x1="500" y1="959.96" x2="500" y2="88.57" gradientUnits="userSpaceOnUse"><stop offset="0" stop-color="#010101"/><stop offset="1" stop-color="#10264b"/></linearGradient><linearGradient id="Bronze" x1="848.17" y1="450.47" x2="221.73" y2="607.07" gradientUnits="userSpaceOnUse"><stop offset="0.01" stop-color="#401617"/><stop offset="0.08" stop-color="#6b4c2d"/><stop offset="0.38" stop-color="#a58a55"/><stop offset="0.56" stop-color="#e5d4b5"/><stop offset="0.8" stop-color="#987a59"/><stop offset="0.8" stop-color="#967857"/><stop offset="0.96" stop-color="#814f2f"/></linearGradient><linearGradient id="Bronze-2" x1="823.18" y1="350.51" x2="196.74" y2="507.12" xlink:href="#Bronze"/><linearGradient id="Bronze-3" x1="836.65" y1="404.39" x2="210.21" y2="561" xlink:href="#Bronze"/><linearGradient id="Bronze-4" x1="824.01" y1="353.83" x2="197.57" y2="510.44" xlink:href="#Bronze"/><linearGradient id="Bronze-5" x1="846.9" y1="445.39" x2="220.46" y2="602" xlink:href="#Bronze"/><linearGradient id="Bronze-6" x1="818.96" y1="333.63" x2="192.52" y2="490.24" xlink:href="#Bronze"/></defs><title>моспамятьрф</title><rect class="cls-1" x="-16" y="-18.5" width="1032" height="1032"/><path class="cls-2" d="M554.44,408.45l42.83-2.13c-16.11,13.69-32.4,26.89-50.59,37.78-19.49,11.68-42.5,8-63,14.77a.52.52,0,0,0,.1,1l41.48,4.62c-22.84,15.57-50.46,13.59-77.11,22.32,4-5.7,6.79-10.17,10-14.31C486,437,520.47,409.26,559.46,386.78c19.24-11.1,38.58-22.22,54.75-38-.6-.29-1.11-.68-1.24-.58-24.63,19.52-53.06,32.7-80.34,47.76a266.8,266.8,0,0,0-80.22,68.23,34.93,34.93,0,0,0-2.16,3.79c-5.91-27.05,16.81-67.77,44.35-81.46l-6.06,24.24a.52.52,0,0,0,.91.45c11.71-15.21,19.7-33.28,37.06-43.29,11.29-6.52,23-12.31,36.14-19.3L556,371.73a.66.66,0,0,0,1.17.58c2.19-2.94,4.42-5.85,6.59-8.82,7.78-10.66,16.37-20.51,28.39-26.58,36.24-18.3,54.77-41.73,56.25-42.62,2,13.34,1,45.32-18.46,73-11,20.49-30.68,28.71-51.94,34-7.88,1.95-15.88,3.43-23.82,5.16A1,1,0,0,0,554.44,408.45Z"/><path class="cls-3" d="M442.64,537.45c35.08-18.78,68.64-37.15,102.56-54.81,42.3-22,86-40.17,135.06-36.53,44.52,3.32,81.11,21.75,104.57,61.58a43,43,0,0,1,5,12.89,13.16,13.16,0,0,1-1.63-2.14c-17.27-35.38-47-54.24-84.21-62.32-42-9.14-82.3-.58-120.86,15.91-29.27,12.51-57.47,27.49-86.29,41.06C479.35,521.33,461.58,529,442.64,537.45Z"/><path class="cls-4" d="M388.9,524.56c-44.64,12.69-86.22,6.19-123.83-21.85a189,189,0,0,1-54.91-64.51c9.2,11.82,17.74,25,28.47,35.95s22.84,21.57,36.07,29.38a153.25,153.25,0,0,0,43.65,17.55c15,3.35,31,3.45,46.45,2.71,15.76-.76,31.32-4.47,45-13.49C410.34,511.17,396.84,522.3,388.9,524.56Z"/><path class="cls-5" d="M779.39,448.2c-30.87-19.11-64.48-28-100.67-26.23-35.91,1.78-68.84,14.2-101.81,30.49,14.56-12.2,66-33.84,101.86-35.18C716.16,415.87,749.37,426.38,779.39,448.2Z"/><path class="cls-6" d="M273,469.55c52.8,31.14,104.17,17.84,155.25-4.71C389.48,493.27,318.53,505.26,273,469.55Z"/><path class="cls-7" d="M625.7,477.23c21-5.41,42.47-7.54,64-2.49,14.26,3.35,27.41,9.09,38.09,19.53a11.26,11.26,0,0,1,2.52,3.72,92.93,92.93,0,0,0-60.14-21.82c-16.12,0-32.38,2.64-48.31,5.58-12.52,2.31-24.63,6.88-36.92,10.44C584.67,491.59,611.64,480.85,625.7,477.23Z"/><path class="cls-2" d="M402,555.6c8.41-29,33.41-62,33.41-62l13-7S409.38,537.61,402,555.6Z"/><path class="cls-8" d="M337,472.58c-20,2.14-40.42-11.91-38.76-27.26C306.64,461.46,319.9,469.67,337,472.58Z"/><text class="cls-9" transform="translate(188 685.12)">МосПамять.рф </text></svg>