<svg id="Layer_1" data-name="Layer 1" xmlns="http://www.w3.org/2000/svg" xmlns:xlink="http://www.w3.org/1999/xlink" viewBox="0 0 579.69 261.32"><defs><style>.cls-1{fill:#fff;}.cls-2{fill:url(#Bronze);}.cls-3{fill:url(#Bronze-2);}.cls-4{fill:url(#Bronze-3);}.cls-5{fill:url(#Bronze-4);}.cls-6{fill:url(#Bronze-5);}.cls-7{fill:url(#Bronze-6);}</style><linearGradient id="Bronze" x1="638.01" y1="156.18" x2="11.57" y2="312.79" gradientUnits="userSpaceOnUse"><stop offset="0.01" stop-color="#401617"/><stop offset="0.08" stop-color="#6b4c2d"/><stop offset="0.38" stop-color="#a58a55"/><stop offset="0.56" stop-color="#e5d4b5"/><stop offset="0.8" stop-color="#987a59"/><stop offset="0.8" stop-color="#967857"/><stop offset="0.96" stop-color="#814f2f"/></linearGradient><linearGradient id="Bronze-2" x1="613.02" y1="56.23" x2="-13.42" y2="212.84" xlink:href="#Bronze"/><linearGradient id="Bronze-3" x1="626.49" y1="110.11" x2="0.05" y2="266.72" xlink:href="#Bronze"/><linearGradient id="Bronze-4" x1="613.85" y1="59.55" x2="-12.59" y2="216.16" xlink:href="#Bronze"/><linearGradient id="Bronze-5" x1="636.74" y1="151.1" x2="10.3" y2="307.71" xlink:href="#Bronze"/><linearGradient id="Bronze-6" x1="608.8" y1="39.34" x2="-17.64" y2="195.95" xlink:href="#Bronze"/></defs><title>моспамятьрф</title><path class="cls-1" d="M344.29,114.17,387.12,112c-16.12,13.7-32.4,26.89-50.59,37.79-19.49,11.67-42.51,8-63.06,14.77a.51.51,0,0,0,.1,1l41.49,4.62c-22.84,15.58-50.46,13.59-77.12,22.33,4-5.7,6.8-10.18,10.05-14.31C275.87,142.71,310.31,115,349.3,92.49c19.25-11.09,38.58-22.21,54.75-38-.59-.29-1.11-.69-1.23-.59-24.64,19.53-53.06,32.7-80.34,47.77a266.5,266.5,0,0,0-80.22,68.22,32.48,32.48,0,0,0-2.17,3.8c-5.91-27,16.81-67.77,44.35-81.47l-6.05,24.25a.51.51,0,0,0,.9.44C291,101.68,299,83.62,316.36,73.6c11.28-6.51,23-12.31,36.14-19.29-2.61,9-4.63,16-6.67,23.14A.66.66,0,0,0,347,78c2.19-3,4.43-5.86,6.59-8.83C361.37,58.54,370,48.69,382,42.62,418.22,24.32,436.75.89,438.23,0c2,13.35,1,45.32-18.46,73-11,20.49-30.68,28.7-51.93,34-7.88,2-15.88,3.43-23.82,5.16A1,1,0,0,0,344.29,114.17Z"/><path class="cls-2" d="M232.49,243.16C267.57,224.38,301.12,206,335,188.36c42.3-22,86-40.18,135.06-36.53,44.53,3.31,81.11,21.75,104.57,61.57a43.23,43.23,0,0,1,5,12.89,13.75,13.75,0,0,1-1.64-2.13c-17.26-35.39-47-54.24-84.21-62.33-42-9.13-82.3-.58-120.86,15.91-29.26,12.52-57.47,27.5-86.29,41.07C269.2,227,251.42,234.68,232.49,243.16Z"/><path class="cls-3" d="M178.74,230.27c-44.64,12.7-86.22,6.2-123.82-21.85A188.78,188.78,0,0,1,0,143.91c9.2,11.82,17.74,25,28.48,36s22.84,21.56,36.07,29.37A153,153,0,0,0,108.2,226.8c15,3.35,31,3.44,46.45,2.7,15.75-.75,31.32-4.47,45-13.49C200.18,216.88,186.69,228,178.74,230.27Z"/><path class="cls-4" d="M569.24,153.91c-30.88-19.1-64.49-28-100.68-26.22-35.9,1.77-68.83,14.2-101.81,30.49,14.56-12.2,66-33.84,101.86-35.19C506,121.59,539.21,132.1,569.24,153.91Z"/><path class="cls-5" d="M62.87,175.27c52.8,31.13,104.18,17.83,155.26-4.72C179.32,199,108.37,211,62.87,175.27Z"/><path class="cls-6" d="M415.55,183c21-5.41,42.47-7.54,64-2.5,14.27,3.35,27.41,9.1,38.09,19.54a11.49,11.49,0,0,1,2.53,3.71A93,93,0,0,0,460,181.89c-16.11,0-32.38,2.64-48.31,5.58-12.52,2.31-24.62,6.87-36.91,10.44C374.51,197.3,401.49,186.57,415.55,183Z"/><path class="cls-1" d="M191.82,261.32c8.4-29,33.4-62,33.4-62l13-7S199.22,243.32,191.82,261.32Z"/><path class="cls-7" d="M126.87,178.3c-20,2.14-40.42-11.92-38.76-27.26C96.48,167.17,109.74,175.38,126.87,178.3Z"/></svg>